<svg xmlns="http://www.w3.org/2000/svg" xmlns:xlink="http://www.w3.org/1999/xlink" width="480" zoomAndPan="magnify" viewBox="0 0 360 359.999987" height="480" preserveAspectRatio="xMidYMid meet" version="1.0"><defs><clipPath id="685e9b3f4f"><path d="M 11 0.0390625 L 234 0.0390625 L 234 243 L 11 243 Z M 11 0.0390625 " clip-rule="nonzero"/></clipPath><clipPath id="544ec0c4be"><path d="M -2.382812 13.132812 L 226.398438 -0.683594 L 240.269531 228.992188 L 11.488281 242.808594 Z M -2.382812 13.132812 " clip-rule="nonzero"/></clipPath><clipPath id="277f4ce818"><path d="M 11.488281 242.808594 C 7.851562 182.558594 28.695312 122.167969 68.726562 76.988281 C 108.757812 31.808594 166.199219 3.847656 226.453125 0.210938 L 233.503906 116.925781 C 203.988281 118.707031 175.851562 132.40625 156.242188 154.535156 C 136.632812 176.664062 126.421875 206.246094 128.207031 235.761719 Z M 11.488281 242.808594 " clip-rule="nonzero"/></clipPath><clipPath id="b9e54adc5d"><path d="M 0 0.0390625 L 222.519531 0.0390625 L 222.519531 242.921875 L 0 242.921875 Z M 0 0.0390625 " clip-rule="nonzero"/></clipPath><clipPath id="992fe8e22e"><path d="M -13.382812 13.132812 L 215.398438 -0.683594 L 229.269531 228.992188 L 0.488281 242.808594 Z M -13.382812 13.132812 " clip-rule="nonzero"/></clipPath><clipPath id="a72ebb28b0"><path d="M 0.488281 242.808594 C -3.148438 182.558594 17.695312 122.167969 57.726562 76.988281 C 97.757812 31.808594 155.199219 3.847656 215.453125 0.210938 L 222.503906 116.925781 C 192.988281 118.707031 164.851562 132.40625 145.242188 154.535156 C 125.632812 176.664062 115.421875 206.246094 117.207031 235.761719 Z M 0.488281 242.808594 " clip-rule="nonzero"/></clipPath><clipPath id="c88a54f96a"><rect x="0" width="223" y="0" height="243"/></clipPath><clipPath id="823b510437"><path d="M 126 106 L 349 106 L 349 349.960938 L 126 349.960938 Z M 126 106 " clip-rule="nonzero"/></clipPath><clipPath id="902f792462"><path d="M 362.378906 336.046875 L 133.644531 350.675781 L 118.960938 121.050781 L 347.695312 106.421875 Z M 362.378906 336.046875 " clip-rule="nonzero"/></clipPath><clipPath id="6826b22af1"><path d="M 347.695312 106.421875 C 351.546875 166.664062 330.914062 227.125 291.042969 272.445312 C 251.171875 317.765625 193.828125 345.929688 133.589844 349.78125 L 126.125 233.089844 C 155.632812 231.203125 183.722656 217.40625 203.253906 195.207031 C 222.78125 173.007812 232.890625 143.394531 231.003906 113.886719 Z M 347.695312 106.421875 " clip-rule="nonzero"/></clipPath><clipPath id="9016dafdef"><path d="M 0 0.359375 L 223 0.359375 L 223 243.960938 L 0 243.960938 Z M 0 0.359375 " clip-rule="nonzero"/></clipPath><clipPath id="c392eaaf39"><path d="M 236.378906 230.046875 L 7.644531 244.675781 L -7.039062 15.050781 L 221.695312 0.421875 Z M 236.378906 230.046875 " clip-rule="nonzero"/></clipPath><clipPath id="b0b4c50c6e"><path d="M 221.695312 0.421875 C 225.546875 60.664062 204.914062 121.125 165.042969 166.445312 C 125.171875 211.765625 67.828125 239.929688 7.589844 243.78125 L 0.125 127.089844 C 29.632812 125.203125 57.722656 111.40625 77.253906 89.207031 C 96.78125 67.007812 106.890625 37.394531 105.003906 7.886719 Z M 221.695312 0.421875 " clip-rule="nonzero"/></clipPath><clipPath id="26b4775994"><rect x="0" width="223" y="0" height="244"/></clipPath><clipPath id="fed0faca67"><rect x="0" width="360" y="0" height="350"/></clipPath></defs><g transform="matrix(1, 0, 0, 1, 0, 5)"><g clip-path="url(#fed0faca67)"><g clip-path="url(#685e9b3f4f)"><g clip-path="url(#544ec0c4be)"><g clip-path="url(#277f4ce818)"><g transform="matrix(1, 0, 0, 1, 11, 0)"><g clip-path="url(#c88a54f96a)"><g clip-path="url(#b9e54adc5d)"><g clip-path="url(#992fe8e22e)"><g clip-path="url(#a72ebb28b0)"><path fill="#1bb570" d="M -13.328125 14.027344 L 215.453125 0.210938 L 229.269531 228.992188 L 0.488281 242.808594 Z M -13.328125 14.027344 " fill-opacity="1" fill-rule="nonzero"/></g></g></g></g></g></g></g></g><g clip-path="url(#823b510437)"><g clip-path="url(#902f792462)"><g clip-path="url(#6826b22af1)"><g transform="matrix(1, 0, 0, 1, 126, 106)"><g clip-path="url(#26b4775994)"><g clip-path="url(#9016dafdef)"><g clip-path="url(#c392eaaf39)"><g clip-path="url(#b0b4c50c6e)"><path fill="#1bb570" d="M 236.320312 229.15625 L 7.589844 243.78125 L -7.039062 15.050781 L 221.695312 0.421875 Z M 236.320312 229.15625 " fill-opacity="1" fill-rule="nonzero"/></g></g></g></g></g></g></g></g></g></g></svg>